<?xml version="1.0" encoding="utf-8" standalone="no"?>
<!DOCTYPE svg PUBLIC "-//W3C//DTD SVG 1.1//EN"
  "http://www.w3.org/Graphics/SVG/1.1/DTD/svg11.dtd">
<svg xmlns:xlink="http://www.w3.org/1999/xlink" width="561.24pt" height="307.182031pt" viewBox="0 0 561.24 307.182031" xmlns="http://www.w3.org/2000/svg" version="1.1">
 <metadata>
  <rdf:RDF xmlns:dc="http://purl.org/dc/elements/1.1/" xmlns:cc="http://creativecommons.org/ns#" xmlns:rdf="http://www.w3.org/1999/02/22-rdf-syntax-ns#">
   <cc:Work>
    <dc:type rdf:resource="http://purl.org/dc/dcmitype/StillImage"/>
    <dc:format>image/svg+xml</dc:format>
    <dc:creator>
     <cc:Agent>
      <dc:title>Matplotlib v3.9.2, https://matplotlib.org/</dc:title>
     </cc:Agent>
    </dc:creator>
   </cc:Work>
  </rdf:RDF>
 </metadata>
 <defs>
  <style type="text/css">*{stroke-linejoin: round; stroke-linecap: butt}</style>
 </defs>
 <g id="figure_1">
  <g id="patch_1">
   <path d="M 0 307.182031
L 561.24 307.182031
L 561.24 0
L 0 0
z
" style="fill: #ffffff"/>
  </g>
  <g id="axes_1">
   <g id="patch_2">
    <path d="M 41.65092 183.558031
L 147.73788 183.558031
Q 151.01892 183.558031 151.01892 180.786031
L 151.01892 141.978031
Q 151.01892 139.206031 147.73788 139.206031
L 41.65092 139.206031
Q 38.36988 139.206031 38.36988 141.978031
L 38.36988 180.786031
Q 38.36988 183.558031 41.65092 183.558031
z
" clip-path="url(#p8be771db54)" style="fill: #e5f4ec; stroke: #222222; stroke-width: 1.2; stroke-linejoin: miter"/>
   </g>
   <g id="patch_3">
    <path d="M 227.57652 109.638031
L 333.66348 109.638031
Q 336.94452 109.638031 336.94452 106.866031
L 336.94452 68.058031
Q 336.94452 65.286031 333.66348 65.286031
L 227.57652 65.286031
Q 224.29548 65.286031 224.29548 68.058031
L 224.29548 106.866031
Q 224.29548 109.638031 227.57652 109.638031
z
" clip-path="url(#p8be771db54)" style="fill: #dce9fb; stroke: #222222; stroke-width: 1.2; stroke-linejoin: miter"/>
   </g>
   <g id="patch_4">
    <path d="M 413.50212 183.558031
L 519.58908 183.558031
Q 522.87012 183.558031 522.87012 180.786031
L 522.87012 141.978031
Q 522.87012 139.206031 519.58908 139.206031
L 413.50212 139.206031
Q 410.22108 139.206031 410.22108 141.978031
L 410.22108 180.786031
Q 410.22108 183.558031 413.50212 183.558031
z
" clip-path="url(#p8be771db54)" style="fill: #e5f4ec; stroke: #222222; stroke-width: 1.2; stroke-linejoin: miter"/>
   </g>
   <g id="patch_5">
    <path d="M 227.57652 266.718031
L 333.66348 266.718031
Q 336.94452 266.718031 336.94452 263.946031
L 336.94452 225.138031
Q 336.94452 222.366031 333.66348 222.366031
L 227.57652 222.366031
Q 224.29548 222.366031 224.29548 225.138031
L 224.29548 263.946031
Q 224.29548 266.718031 227.57652 266.718031
z
" clip-path="url(#p8be771db54)" style="fill: #fff0df; stroke: #222222; stroke-width: 1.2; stroke-linejoin: miter"/>
   </g>
   <g id="patch_6">
    <path d="M 150.858563 160.038878
Q 186.289484 127.88759 220.561262 96.78815
" clip-path="url(#p8be771db54)" style="fill: none; stroke: #1f5fbf; stroke-width: 1.4; stroke-linecap: round"/>
    <path d="M 214.9632 98.357128
L 220.561262 96.78815
L 218.457607 102.207987
z
" clip-path="url(#p8be771db54)" style="fill: #1f5fbf; stroke: #1f5fbf; stroke-width: 1.4; stroke-linecap: round"/>
   </g>
   <g id="patch_7">
    <path d="M 336.784163 95.735184
Q 372.215084 127.886473 406.486862 158.985913
" clip-path="url(#p8be771db54)" style="fill: none; stroke: #2e8b57; stroke-width: 1.4; stroke-linecap: round"/>
    <path d="M 404.383207 153.566076
L 406.486862 158.985913
L 400.8888 157.416935
z
" clip-path="url(#p8be771db54)" style="fill: #2e8b57; stroke: #2e8b57; stroke-width: 1.4; stroke-linecap: round"/>
   </g>
   <g id="patch_8">
    <path d="M 336.784163 243.198878
Q 372.215084 211.04759 406.486862 179.94815
" clip-path="url(#p8be771db54)" style="fill: none; stroke: #e67e22; stroke-width: 1.4; stroke-linecap: round"/>
    <path d="M 400.8888 181.517128
L 406.486862 179.94815
L 404.383207 185.367987
z
" clip-path="url(#p8be771db54)" style="fill: #e67e22; stroke: #e67e22; stroke-width: 1.4; stroke-linecap: round"/>
   </g>
   <g id="patch_9">
    <path d="M 523.22885 161.382031
Q 528.065958 161.382031 531.337819 161.382031
" clip-path="url(#p8be771db54)" style="fill: none; stroke: #2e8b57; stroke-width: 1.4; stroke-linecap: round"/>
    <path d="M 526.137819 158.782031
L 531.337819 161.382031
L 526.137819 163.982031
z
" clip-path="url(#p8be771db54)" style="fill: #2e8b57; stroke: #2e8b57; stroke-width: 1.4; stroke-linecap: round"/>
   </g>
   <g id="text_1">
    <!-- Previous posterior -->
    <g transform="translate(56.337408 157.570203) scale(0.105 -0.105)">
     <defs>
      <path id="STIXGeneral-Regular-50" d="M 102 4237
L 1760 4237
Q 2669 4237 3149 3834
Q 3469 3565 3469 3072
Q 3469 2560 3104 2234
Q 2835 1990 2553 1916
Q 2272 1843 1734 1843
Q 1549 1843 1293 1862
L 1293 717
Q 1293 352 1398 246
Q 1504 141 1894 122
L 1894 0
L 102 0
L 102 122
Q 474 147 557 256
Q 640 365 640 781
L 640 3526
Q 640 3885 547 3987
Q 454 4090 102 4115
L 102 4237
z
M 1293 3770
L 1293 2118
Q 1510 2099 1683 2099
Q 2202 2099 2486 2352
Q 2771 2605 2771 3040
Q 2771 3558 2476 3779
Q 2182 4000 1517 4000
Q 1382 4000 1337 3952
Q 1293 3904 1293 3770
z
" transform="scale(0.015625)"/>
      <path id="STIXGeneral-Regular-72" d="M 1024 2931
L 1024 2342
Q 1267 2688 1430 2816
Q 1594 2944 1792 2944
Q 1958 2944 2051 2854
Q 2144 2765 2144 2605
Q 2144 2470 2077 2393
Q 2010 2317 1894 2317
Q 1773 2317 1638 2445
Q 1536 2541 1472 2541
Q 1338 2541 1181 2355
Q 1024 2170 1024 2016
L 1024 576
Q 1024 301 1133 205
Q 1242 109 1568 96
L 1568 0
L 32 0
L 32 96
Q 339 154 412 224
Q 486 294 486 538
L 486 2138
Q 486 2349 438 2435
Q 390 2522 269 2522
Q 166 2522 45 2496
L 45 2598
Q 448 2726 992 2944
L 1024 2931
z
" transform="scale(0.015625)"/>
      <path id="STIXGeneral-Regular-65" d="M 2611 1050
L 2714 1005
Q 2330 -64 1376 -64
Q 813 -64 486 329
Q 160 723 160 1389
Q 160 2074 525 2509
Q 890 2944 1485 2944
Q 2061 2944 2374 2502
Q 2560 2246 2592 1773
L 621 1773
Q 646 1370 700 1158
Q 755 947 915 730
Q 1184 378 1626 378
Q 1939 378 2153 531
Q 2368 685 2611 1050
z
M 634 1978
L 1939 1978
Q 1882 2381 1750 2547
Q 1619 2714 1312 2714
Q 1043 2714 864 2525
Q 685 2336 634 1978
z
" transform="scale(0.015625)"/>
      <path id="STIXGeneral-Regular-76" d="M 3053 2880
L 3053 2784
Q 2906 2771 2835 2688
Q 2765 2605 2637 2285
L 1818 230
Q 1690 -90 1638 -90
Q 1587 -90 1523 77
Q 1510 96 1497 141
Q 1485 186 1472 211
L 704 2048
Q 499 2534 403 2652
Q 307 2771 122 2784
L 122 2880
L 1376 2880
L 1376 2784
Q 1210 2771 1146 2732
Q 1082 2694 1082 2611
Q 1082 2509 1139 2368
L 1792 730
L 2426 2387
Q 2464 2483 2464 2579
Q 2464 2758 2163 2784
L 2163 2880
L 3053 2880
z
" transform="scale(0.015625)"/>
      <path id="STIXGeneral-Regular-69" d="M 1152 4045
Q 1152 3904 1056 3811
Q 960 3718 819 3718
Q 685 3718 592 3811
Q 499 3904 499 4045
Q 499 4179 595 4275
Q 691 4371 826 4371
Q 966 4371 1059 4275
Q 1152 4179 1152 4045
z
M 1619 0
L 102 0
L 102 96
Q 435 115 521 211
Q 608 307 608 666
L 608 2118
Q 608 2342 563 2432
Q 518 2522 397 2522
Q 243 2522 128 2490
L 128 2592
L 1120 2944
L 1146 2918
L 1146 672
Q 1146 314 1226 218
Q 1306 122 1619 96
L 1619 0
z
" transform="scale(0.015625)"/>
      <path id="STIXGeneral-Regular-6f" d="M 3008 1478
Q 3008 806 2608 371
Q 2208 -64 1568 -64
Q 979 -64 582 368
Q 186 800 186 1459
Q 186 2125 582 2534
Q 979 2944 1626 2944
Q 2221 2944 2614 2537
Q 3008 2131 3008 1478
z
M 2432 1306
Q 2432 2035 2112 2445
Q 1856 2765 1504 2765
Q 1171 2765 966 2493
Q 762 2221 762 1747
Q 762 928 1101 435
Q 1318 115 1677 115
Q 2029 115 2230 432
Q 2432 749 2432 1306
z
" transform="scale(0.015625)"/>
      <path id="STIXGeneral-Regular-75" d="M 3072 320
L 3072 230
Q 2573 96 2195 -58
L 2163 -38
L 2163 486
L 2150 486
Q 1747 -64 1235 -64
Q 870 -64 662 160
Q 454 384 454 755
L 454 2362
Q 454 2598 371 2688
Q 288 2778 58 2790
L 58 2880
L 992 2880
L 992 813
Q 992 595 1123 451
Q 1254 307 1446 307
Q 1760 307 1984 506
Q 2067 582 2099 649
Q 2131 717 2131 877
L 2131 2355
Q 2131 2605 2041 2678
Q 1952 2752 1658 2771
L 1658 2880
L 2669 2880
L 2669 685
Q 2669 461 2742 390
Q 2816 320 3034 320
L 3072 320
z
" transform="scale(0.015625)"/>
      <path id="STIXGeneral-Regular-73" d="M 998 1926
L 1664 1523
Q 1984 1331 2105 1164
Q 2227 998 2227 736
Q 2227 416 1961 176
Q 1696 -64 1331 -64
Q 1030 -64 864 -6
Q 691 51 570 51
Q 461 51 416 -26
L 333 -26
L 333 979
L 435 979
Q 538 512 730 294
Q 922 77 1248 77
Q 1485 77 1632 211
Q 1779 346 1779 550
Q 1779 845 1440 1030
L 1094 1222
Q 326 1651 326 2150
Q 326 2522 566 2730
Q 806 2938 1210 2938
Q 1491 2938 1638 2867
Q 1754 2816 1818 2816
Q 1862 2816 1920 2880
L 1990 2880
L 2022 2010
L 1926 2010
Q 1818 2445 1654 2621
Q 1491 2797 1203 2797
Q 986 2797 854 2688
Q 723 2579 723 2362
Q 723 2253 796 2128
Q 870 2003 998 1926
z
" transform="scale(0.015625)"/>
      <path id="STIXGeneral-Regular-20" transform="scale(0.015625)"/>
      <path id="STIXGeneral-Regular-70" d="M 1018 2931
L 1018 2438
Q 1421 2944 1939 2944
Q 2406 2944 2707 2560
Q 3008 2176 3008 1581
Q 3008 883 2621 409
Q 2234 -64 1664 -64
Q 1466 -64 1328 -6
Q 1190 51 1018 211
L 1018 -794
Q 1018 -1094 1120 -1180
Q 1222 -1267 1581 -1274
L 1581 -1389
L 32 -1389
L 32 -1280
Q 314 -1254 397 -1171
Q 480 -1088 480 -838
L 480 2157
Q 480 2381 429 2451
Q 378 2522 218 2522
Q 115 2522 58 2515
L 58 2618
Q 506 2752 979 2944
L 1018 2931
z
M 1018 2138
L 1018 563
Q 1018 422 1238 281
Q 1459 141 1683 141
Q 2029 141 2243 467
Q 2458 794 2458 1325
Q 2458 1888 2243 2224
Q 2029 2560 1670 2560
Q 1446 2560 1232 2419
Q 1018 2278 1018 2138
z
" transform="scale(0.015625)"/>
      <path id="STIXGeneral-Regular-74" d="M 1702 493
L 1786 422
Q 1478 -64 1011 -64
Q 448 -64 448 749
L 448 2675
L 109 2675
Q 83 2694 83 2720
Q 83 2771 192 2842
Q 435 2982 813 3526
Q 826 3546 874 3606
Q 922 3667 941 3706
Q 986 3706 986 3622
L 986 2880
L 1632 2880
L 1632 2675
L 986 2675
L 986 845
Q 986 538 1062 403
Q 1139 269 1318 269
Q 1510 269 1702 493
z
" transform="scale(0.015625)"/>
     </defs>
     <use xlink:href="#STIXGeneral-Regular-50"/>
     <use xlink:href="#STIXGeneral-Regular-72" x="55.699997"/>
     <use xlink:href="#STIXGeneral-Regular-65" x="88.999985"/>
     <use xlink:href="#STIXGeneral-Regular-76" x="133.399979"/>
     <use xlink:href="#STIXGeneral-Regular-69" x="183.399963"/>
     <use xlink:href="#STIXGeneral-Regular-6f" x="211.199951"/>
     <use xlink:href="#STIXGeneral-Regular-75" x="261.199936"/>
     <use xlink:href="#STIXGeneral-Regular-73" x="311.199921"/>
     <use xlink:href="#STIXGeneral-Regular-20" x="350.099915"/>
     <use xlink:href="#STIXGeneral-Regular-70" x="375.099899"/>
     <use xlink:href="#STIXGeneral-Regular-6f" x="425.099884"/>
     <use xlink:href="#STIXGeneral-Regular-73" x="475.099869"/>
     <use xlink:href="#STIXGeneral-Regular-74" x="513.999863"/>
     <use xlink:href="#STIXGeneral-Regular-65" x="541.79985"/>
     <use xlink:href="#STIXGeneral-Regular-72" x="586.199844"/>
     <use xlink:href="#STIXGeneral-Regular-69" x="619.499832"/>
     <use xlink:href="#STIXGeneral-Regular-6f" x="647.29982"/>
     <use xlink:href="#STIXGeneral-Regular-72" x="697.299805"/>
    </g>
    <!-- $\hat x_{k-1}^+, P_{k-1}^+$ -->
    <g transform="translate(72.2769 169.425031) scale(0.105 -0.105)">
     <defs>
      <path id="STIXGeneral-Regular-302" d="M -480 3245
L -698 3245
L -1478 3904
L -2253 3245
L -2470 3245
L -1677 4314
L -1280 4314
L -480 3245
z
" transform="scale(0.015625)"/>
      <path id="STIXGeneral-Italic-78" d="M 1555 2272
L 1632 1907
Q 1971 2426 2179 2624
Q 2387 2822 2598 2822
Q 2714 2822 2787 2755
Q 2861 2688 2861 2585
Q 2861 2483 2800 2419
Q 2739 2355 2643 2355
Q 2586 2355 2490 2409
Q 2394 2464 2310 2464
Q 2125 2464 1683 1690
Q 1683 1606 1734 1402
L 1939 544
Q 2003 282 2131 282
Q 2234 282 2432 538
Q 2451 563 2476 598
Q 2502 634 2521 662
Q 2541 691 2566 717
L 2662 659
Q 2387 230 2227 80
Q 2067 -70 1882 -70
Q 1728 -70 1645 26
Q 1562 122 1504 365
L 1318 1126
L 755 365
Q 557 96 432 13
Q 307 -70 147 -70
Q 0 -70 -86 0
Q -173 70 -173 198
Q -173 294 -112 361
Q -51 429 45 429
Q 122 429 250 358
Q 346 301 416 301
Q 525 301 742 614
L 1267 1357
L 1088 2150
Q 1024 2432 969 2509
Q 915 2586 794 2586
Q 717 2586 544 2541
L 429 2509
L 410 2611
L 480 2637
Q 992 2822 1229 2822
Q 1350 2822 1420 2707
Q 1491 2592 1555 2272
z
" transform="scale(0.015625)"/>
      <path id="STIXGeneral-Regular-2b" d="M 4070 1408
L 2400 1408
L 2400 -262
L 1978 -262
L 1978 1408
L 307 1408
L 307 1830
L 1978 1830
L 1978 3501
L 2400 3501
L 2400 1830
L 4070 1830
L 4070 1408
z
" transform="scale(0.015625)"/>
      <path id="STIXGeneral-Italic-6b" d="M 2950 2739
L 2950 2637
Q 2720 2624 2464 2448
Q 2208 2272 1510 1651
L 1747 1088
Q 2099 262 2266 262
Q 2400 262 2554 531
Q 2586 582 2650 698
L 2746 627
Q 2522 224 2374 77
Q 2227 -70 2035 -70
Q 1894 -70 1782 42
Q 1670 154 1517 454
Q 1325 826 1133 1357
L 877 1152
L 570 0
L 90 0
L 992 3379
Q 1082 3699 1107 3942
Q 1088 4096 781 4096
L 666 4096
L 666 4198
Q 1146 4256 1670 4371
L 1709 4333
L 941 1414
L 1216 1626
Q 2131 2330 2131 2522
Q 2131 2637 1894 2637
L 1805 2637
L 1805 2739
L 2950 2739
z
" transform="scale(0.015625)"/>
      <path id="STIXGeneral-Regular-2212" d="M 3974 1408
L 410 1408
L 410 1830
L 3974 1830
L 3974 1408
z
" transform="scale(0.015625)"/>
      <path id="STIXGeneral-Regular-31" d="M 2522 0
L 755 0
L 755 96
Q 1107 115 1235 227
Q 1363 339 1363 608
L 1363 3482
Q 1363 3795 1171 3795
Q 1082 3795 883 3718
L 710 3654
L 710 3744
L 1856 4326
L 1914 4307
L 1914 486
Q 1914 275 2042 185
Q 2170 96 2522 96
L 2522 0
z
" transform="scale(0.015625)"/>
      <path id="STIXGeneral-Regular-2c" d="M 531 -902
L 467 -781
Q 998 -422 998 -96
Q 998 -13 909 -13
Q 883 -13 822 -25
Q 762 -38 723 -38
Q 352 -38 352 288
Q 352 454 457 553
Q 563 653 736 653
Q 954 653 1101 496
Q 1248 339 1248 96
Q 1248 -198 1053 -473
Q 858 -749 531 -902
z
" transform="scale(0.015625)"/>
      <path id="STIXGeneral-Italic-50" d="M 934 4179
L 2477 4179
Q 3872 4179 3872 3232
Q 3872 2976 3753 2729
Q 3635 2483 3437 2317
Q 2995 1952 2125 1952
Q 1773 1952 1549 2003
L 1210 768
Q 1120 422 1120 365
Q 1120 250 1216 189
Q 1312 128 1562 102
L 1562 0
L 0 0
L 0 102
Q 275 141 361 227
Q 448 314 538 627
L 1280 3277
Q 1389 3667 1389 3808
Q 1389 3936 1299 3990
Q 1210 4045 934 4077
L 934 4179
z
M 2048 3789
L 1606 2221
Q 1792 2189 1939 2189
Q 2496 2189 2758 2342
Q 3213 2598 3213 3200
Q 3213 3987 2381 3987
Q 2099 3987 2048 3789
z
" transform="scale(0.015625)"/>
     </defs>
     <use xlink:href="#STIXGeneral-Regular-302" transform="translate(52.441406 6.88125)"/>
     <use xlink:href="#STIXGeneral-Italic-78" transform="translate(0 0.990625)"/>
     <use xlink:href="#STIXGeneral-Regular-2b" transform="translate(59.041904 37.707813) scale(0.7)"/>
     <use xlink:href="#STIXGeneral-Italic-6b" transform="translate(48.933906 -25.465625) scale(0.7)"/>
     <use xlink:href="#STIXGeneral-Regular-2212" transform="translate(90.121899 -25.465625) scale(0.7)"/>
     <use xlink:href="#STIXGeneral-Regular-31" transform="translate(148.179886 -25.465625) scale(0.7)"/>
     <use xlink:href="#STIXGeneral-Regular-2c" transform="translate(187.58925 0.990625)"/>
     <use xlink:href="#STIXGeneral-Italic-50" transform="translate(227.029232 0.990625)"/>
     <use xlink:href="#STIXGeneral-Regular-2b" transform="translate(308.863001 37.707813) scale(0.7)"/>
     <use xlink:href="#STIXGeneral-Italic-6b" transform="translate(288.129222 -25.465625) scale(0.7)"/>
     <use xlink:href="#STIXGeneral-Regular-2212" transform="translate(329.317216 -25.465625) scale(0.7)"/>
     <use xlink:href="#STIXGeneral-Regular-31" transform="translate(387.375202 -25.465625) scale(0.7)"/>
    </g>
   </g>
   <g id="text_2">
    <!-- Prediction -->
    <g transform="translate(259.031836 83.776203) scale(0.105 -0.105)">
     <defs>
      <path id="STIXGeneral-Regular-64" d="M 3142 269
L 2202 -64
L 2176 -45
L 2176 365
Q 1869 -64 1357 -64
Q 826 -64 499 317
Q 173 698 173 1312
Q 173 1990 563 2467
Q 954 2944 1504 2944
Q 1850 2944 2176 2669
L 2176 3667
Q 2176 3866 2118 3930
Q 2061 3994 1882 3994
Q 1792 3994 1741 3987
L 1741 4090
Q 2323 4243 2682 4371
L 2714 4358
L 2714 730
Q 2714 506 2768 435
Q 2822 365 2995 365
Q 3034 365 3142 371
L 3142 269
z
M 2176 653
L 2176 2125
Q 2176 2381 1981 2573
Q 1786 2765 1523 2765
Q 1158 2765 940 2438
Q 723 2112 723 1568
Q 723 979 963 624
Q 1203 269 1606 269
Q 1907 269 2080 474
Q 2176 582 2176 653
z
" transform="scale(0.015625)"/>
      <path id="STIXGeneral-Regular-63" d="M 2547 998
L 2637 941
Q 2362 403 2112 205
Q 1786 -64 1376 -64
Q 845 -64 502 336
Q 160 736 160 1357
Q 160 2170 698 2618
Q 1094 2944 1562 2944
Q 1965 2944 2256 2749
Q 2547 2554 2547 2285
Q 2547 2176 2457 2096
Q 2368 2016 2246 2016
Q 2022 2016 1939 2310
L 1901 2451
Q 1850 2630 1773 2694
Q 1696 2758 1523 2758
Q 1133 2758 893 2451
Q 653 2144 653 1645
Q 653 1094 928 745
Q 1203 397 1645 397
Q 1920 397 2118 528
Q 2317 659 2547 998
z
" transform="scale(0.015625)"/>
      <path id="STIXGeneral-Regular-6e" d="M 3104 0
L 1773 0
L 1779 96
Q 2016 115 2096 233
Q 2176 352 2176 672
L 2176 1946
Q 2176 2592 1709 2592
Q 1549 2592 1408 2515
Q 1267 2438 1050 2227
L 1050 461
Q 1050 269 1136 192
Q 1222 115 1466 96
L 1466 0
L 115 0
L 115 96
Q 358 115 435 214
Q 512 314 512 602
L 512 2157
Q 512 2394 467 2483
Q 422 2573 288 2573
Q 160 2573 102 2547
L 102 2656
Q 550 2784 979 2944
L 1030 2925
L 1030 2426
L 1037 2426
Q 1491 2944 1958 2944
Q 2323 2944 2518 2688
Q 2714 2432 2714 1958
L 2714 544
Q 2714 288 2790 205
Q 2867 122 3104 96
L 3104 0
z
" transform="scale(0.015625)"/>
     </defs>
     <use xlink:href="#STIXGeneral-Regular-50"/>
     <use xlink:href="#STIXGeneral-Regular-72" x="55.699997"/>
     <use xlink:href="#STIXGeneral-Regular-65" x="88.999985"/>
     <use xlink:href="#STIXGeneral-Regular-64" x="133.399979"/>
     <use xlink:href="#STIXGeneral-Regular-69" x="183.399963"/>
     <use xlink:href="#STIXGeneral-Regular-63" x="211.199951"/>
     <use xlink:href="#STIXGeneral-Regular-74" x="255.599945"/>
     <use xlink:href="#STIXGeneral-Regular-69" x="283.399933"/>
     <use xlink:href="#STIXGeneral-Regular-6f" x="311.199921"/>
     <use xlink:href="#STIXGeneral-Regular-6e" x="361.199905"/>
    </g>
    <!-- $\hat x_k^-, P_k^-$ -->
    <g transform="translate(264.555 95.379031) scale(0.105 -0.105)">
     <use xlink:href="#STIXGeneral-Regular-302" transform="translate(52.441406 6.59375)"/>
     <use xlink:href="#STIXGeneral-Italic-78" transform="translate(0 0.703125)"/>
     <use xlink:href="#STIXGeneral-Regular-2212" transform="translate(59.041904 35.978125) scale(0.7)"/>
     <use xlink:href="#STIXGeneral-Italic-6b" transform="translate(48.933906 -25.753125) scale(0.7)"/>
     <use xlink:href="#STIXGeneral-Regular-2c" transform="translate(121.509265 0.703125)"/>
     <use xlink:href="#STIXGeneral-Italic-50" transform="translate(160.949247 0.703125)"/>
     <use xlink:href="#STIXGeneral-Regular-2212" transform="translate(242.783016 35.978125) scale(0.7)"/>
     <use xlink:href="#STIXGeneral-Italic-6b" transform="translate(222.049237 -25.753125) scale(0.7)"/>
    </g>
   </g>
   <g id="text_3">
    <!-- Correction -->
    <g transform="translate(444.091186 157.570203) scale(0.105 -0.105)">
     <defs>
      <path id="STIXGeneral-Regular-43" d="M 3930 838
L 4051 723
Q 3482 -90 2304 -90
Q 1376 -90 794 480
Q 179 1082 179 2080
Q 179 3014 755 3661
Q 1357 4326 2310 4326
Q 2720 4326 3072 4230
Q 3475 4115 3514 4115
Q 3725 4115 3782 4326
L 3910 4326
L 3968 2874
L 3821 2874
Q 3718 3334 3488 3584
Q 3034 4070 2458 4070
Q 1747 4070 1334 3548
Q 922 3027 922 2182
Q 922 1152 1382 653
Q 1811 192 2522 192
Q 2944 192 3251 339
Q 3558 486 3930 838
z
" transform="scale(0.015625)"/>
     </defs>
     <use xlink:href="#STIXGeneral-Regular-43"/>
     <use xlink:href="#STIXGeneral-Regular-6f" x="66.699997"/>
     <use xlink:href="#STIXGeneral-Regular-72" x="116.699982"/>
     <use xlink:href="#STIXGeneral-Regular-72" x="149.999969"/>
     <use xlink:href="#STIXGeneral-Regular-65" x="183.299957"/>
     <use xlink:href="#STIXGeneral-Regular-63" x="227.699951"/>
     <use xlink:href="#STIXGeneral-Regular-74" x="272.099945"/>
     <use xlink:href="#STIXGeneral-Regular-69" x="299.899933"/>
     <use xlink:href="#STIXGeneral-Regular-6f" x="327.699921"/>
     <use xlink:href="#STIXGeneral-Regular-6e" x="377.699905"/>
    </g>
    <!-- $\hat x_k^+, P_k^+$ -->
    <g transform="translate(450.4806 169.425031) scale(0.105 -0.105)">
     <use xlink:href="#STIXGeneral-Regular-302" transform="translate(52.441406 6.88125)"/>
     <use xlink:href="#STIXGeneral-Italic-78" transform="translate(0 0.990625)"/>
     <use xlink:href="#STIXGeneral-Regular-2b" transform="translate(59.041904 37.707813) scale(0.7)"/>
     <use xlink:href="#STIXGeneral-Italic-6b" transform="translate(48.933906 -25.465625) scale(0.7)"/>
     <use xlink:href="#STIXGeneral-Regular-2c" transform="translate(121.509265 0.990625)"/>
     <use xlink:href="#STIXGeneral-Italic-50" transform="translate(160.949247 0.990625)"/>
     <use xlink:href="#STIXGeneral-Regular-2b" transform="translate(242.783016 37.707813) scale(0.7)"/>
     <use xlink:href="#STIXGeneral-Italic-6b" transform="translate(222.049237 -25.465625) scale(0.7)"/>
    </g>
   </g>
   <g id="text_4">
    <!-- Measurement -->
    <g transform="translate(252.042773 241.546086) scale(0.105 -0.105)">
     <defs>
      <path id="STIXGeneral-Regular-4d" d="M 5530 0
L 3738 0
L 3738 122
Q 4115 147 4214 265
Q 4314 384 4314 787
L 4314 3661
L 2682 0
L 2592 0
L 979 3514
L 979 966
Q 979 448 1088 294
Q 1197 141 1574 122
L 1574 0
L 77 0
L 77 122
Q 358 141 480 205
Q 602 269 650 432
Q 698 595 698 966
L 698 3514
Q 698 3878 589 3984
Q 480 4090 90 4115
L 90 4237
L 1357 4237
L 2835 1024
L 4250 4237
L 5523 4237
L 5523 4115
Q 5178 4109 5072 3993
Q 4966 3878 4966 3520
L 4966 717
Q 4966 378 5072 262
Q 5178 147 5530 122
L 5530 0
z
" transform="scale(0.015625)"/>
      <path id="STIXGeneral-Regular-61" d="M 2829 422
L 2829 243
Q 2586 -64 2253 -64
Q 1888 -64 1843 403
L 1837 403
Q 1427 -64 909 -64
Q 608 -64 422 112
Q 237 288 237 602
Q 237 1050 685 1350
Q 992 1555 1837 1869
L 1837 2214
Q 1837 2502 1699 2646
Q 1562 2790 1338 2790
Q 1146 2790 1018 2697
Q 890 2605 890 2477
Q 890 2419 909 2348
Q 928 2278 928 2208
Q 928 2112 841 2029
Q 755 1946 634 1946
Q 525 1946 441 2029
Q 358 2112 358 2240
Q 358 2547 685 2752
Q 986 2944 1421 2944
Q 1939 2944 2176 2656
Q 2291 2522 2323 2384
Q 2355 2246 2355 1946
L 2355 723
Q 2355 301 2554 301
Q 2682 301 2829 422
z
M 1837 813
L 1837 1715
Q 1248 1510 1018 1293
Q 800 1094 800 800
Q 800 557 921 432
Q 1043 307 1242 307
Q 1453 307 1613 410
Q 1747 506 1792 589
Q 1837 672 1837 813
z
" transform="scale(0.015625)"/>
      <path id="STIXGeneral-Regular-6d" d="M 4960 0
L 3565 0
L 3565 96
Q 3834 122 3907 208
Q 3981 294 3981 576
L 3981 1894
Q 3981 2278 3869 2444
Q 3757 2611 3488 2611
Q 3264 2611 3107 2521
Q 2950 2432 2803 2221
L 2803 608
Q 2803 301 2896 201
Q 2989 102 3264 96
L 3264 0
L 1830 0
L 1830 96
Q 2112 115 2189 188
Q 2266 262 2266 550
L 2266 1901
Q 2266 2611 1850 2611
Q 1670 2611 1468 2531
Q 1267 2451 1171 2336
Q 1088 2240 1088 2227
L 1088 448
Q 1088 243 1177 176
Q 1267 109 1523 96
L 1523 0
L 102 0
L 102 96
Q 371 102 460 195
Q 550 288 550 563
L 550 2150
Q 550 2387 499 2480
Q 448 2573 326 2573
Q 230 2573 122 2547
L 122 2656
Q 557 2778 1011 2944
L 1062 2925
L 1062 2451
L 1075 2451
Q 1363 2752 1584 2848
Q 1805 2944 2054 2944
Q 2560 2944 2733 2406
Q 3232 2944 3776 2944
Q 4518 2944 4518 1792
L 4518 493
Q 4518 282 4582 202
Q 4646 122 4794 109
L 4960 96
L 4960 0
z
" transform="scale(0.015625)"/>
     </defs>
     <use xlink:href="#STIXGeneral-Regular-4d"/>
     <use xlink:href="#STIXGeneral-Regular-65" x="88.899994"/>
     <use xlink:href="#STIXGeneral-Regular-61" x="133.299988"/>
     <use xlink:href="#STIXGeneral-Regular-73" x="177.699982"/>
     <use xlink:href="#STIXGeneral-Regular-75" x="216.599976"/>
     <use xlink:href="#STIXGeneral-Regular-72" x="266.59996"/>
     <use xlink:href="#STIXGeneral-Regular-65" x="299.899948"/>
     <use xlink:href="#STIXGeneral-Regular-6d" x="344.299942"/>
     <use xlink:href="#STIXGeneral-Regular-65" x="422.09993"/>
     <use xlink:href="#STIXGeneral-Regular-6e" x="466.499924"/>
     <use xlink:href="#STIXGeneral-Regular-74" x="516.499908"/>
    </g>
    <!-- $y_k, H_k, R_k$ -->
    <g transform="translate(261.51 252.43032) scale(0.105 -0.105)">
     <defs>
      <path id="STIXGeneral-Italic-79" d="M 1555 1190
L 1690 486
Q 2118 1190 2294 1558
Q 2470 1926 2470 2131
Q 2470 2234 2304 2336
Q 2138 2445 2138 2586
Q 2138 2688 2211 2755
Q 2285 2822 2394 2822
Q 2534 2822 2630 2720
Q 2726 2618 2726 2470
Q 2726 1914 1888 518
Q 1389 -307 918 -812
Q 448 -1318 173 -1318
Q 26 -1318 -64 -1241
Q -154 -1165 -154 -1043
Q -154 -934 -80 -860
Q -6 -787 96 -787
Q 218 -787 314 -876
Q 410 -966 486 -966
Q 602 -966 794 -755
Q 877 -672 1040 -457
Q 1203 -243 1248 -173
Q 1312 -45 1312 51
Q 1312 243 1113 1046
Q 915 1850 787 2176
Q 698 2413 592 2499
Q 486 2586 294 2586
Q 192 2586 96 2560
L 96 2669
Q 237 2694 301 2707
Q 563 2758 986 2822
L 1011 2822
Q 1082 2822 1277 2227
Q 1472 1632 1555 1190
z
" transform="scale(0.015625)"/>
      <path id="STIXGeneral-Italic-48" d="M 4922 4179
L 4922 4077
Q 4640 4026 4550 3949
Q 4461 3872 4384 3603
L 3539 525
Q 3520 448 3520 371
Q 3520 237 3616 185
Q 3712 134 4026 102
L 4026 0
L 2272 0
L 2272 102
Q 2598 128 2729 237
Q 2861 346 2925 595
L 3334 2086
L 1510 2086
L 1088 525
Q 1069 461 1069 384
Q 1069 243 1149 192
Q 1229 141 1517 102
L 1517 0
L -51 0
L -51 102
Q 211 128 310 230
Q 410 333 499 653
L 1254 3405
Q 1331 3699 1331 3814
Q 1331 3949 1238 3997
Q 1146 4045 838 4077
L 838 4179
L 2573 4179
L 2573 4077
Q 2285 4058 2141 3955
Q 1997 3853 1933 3622
L 1587 2355
L 3411 2355
L 3706 3405
Q 3795 3738 3795 3808
Q 3795 3930 3692 3994
Q 3590 4058 3334 4077
L 3334 4179
L 4922 4179
z
" transform="scale(0.015625)"/>
      <path id="STIXGeneral-Italic-52" d="M 845 4179
L 2458 4179
Q 3078 4179 3420 3936
Q 3763 3693 3763 3277
Q 3763 2778 3341 2458
Q 3091 2266 2502 2131
L 3072 627
Q 3181 333 3299 217
Q 3418 102 3629 102
L 3629 0
L 2688 0
L 1901 2074
L 1478 2106
L 1126 806
Q 1043 512 1043 403
Q 1043 256 1126 192
Q 1210 128 1472 102
L 1472 0
L -83 0
L -83 102
Q 173 134 278 243
Q 384 352 461 646
L 1222 3405
Q 1299 3699 1299 3808
Q 1299 3923 1210 3987
Q 1133 4038 845 4077
L 845 4179
z
M 1958 3795
L 1555 2342
Q 1754 2310 1882 2310
Q 2451 2310 2771 2566
Q 3091 2822 3091 3270
Q 3091 3603 2892 3795
Q 2694 3987 2323 3987
Q 2010 3987 1958 3795
z
" transform="scale(0.015625)"/>
     </defs>
     <use xlink:href="#STIXGeneral-Italic-79" transform="translate(0 0.703125)"/>
     <use xlink:href="#STIXGeneral-Italic-6b" transform="translate(44.399994 -12.525) scale(0.7)"/>
     <use xlink:href="#STIXGeneral-Regular-2c" transform="translate(79.889365 0.703125)"/>
     <use xlink:href="#STIXGeneral-Italic-48" transform="translate(119.329346 0.703125)"/>
     <use xlink:href="#STIXGeneral-Italic-6b" transform="translate(191.529327 -12.525) scale(0.7)"/>
     <use xlink:href="#STIXGeneral-Regular-2c" transform="translate(227.018698 0.703125)"/>
     <use xlink:href="#STIXGeneral-Italic-52" transform="translate(266.458679 0.703125)"/>
     <use xlink:href="#STIXGeneral-Italic-6b" transform="translate(327.55867 -12.525) scale(0.7)"/>
    </g>
   </g>
   <g id="text_5">
    <!-- $A_k, B_k u_k, Q_k$ -->
    <g transform="translate(160.458 115.182031) scale(0.105 -0.105)">
     <defs>
      <path id="STIXGeneral-Italic-41" d="M 3610 0
L 2042 0
L 2042 102
Q 2330 115 2432 192
Q 2534 269 2534 442
Q 2534 493 2522 608
L 2394 1446
L 986 1446
L 608 736
Q 467 474 467 314
Q 467 122 864 102
L 864 0
L -326 0
L -326 102
Q -109 147 28 307
Q 166 467 531 1101
L 2355 4275
L 2522 4275
L 3110 736
Q 3174 339 3264 230
Q 3354 122 3610 102
L 3610 0
z
M 2362 1677
L 2074 3360
L 1120 1677
L 2362 1677
z
" transform="scale(0.015625)"/>
      <path id="STIXGeneral-Italic-42" d="M 832 4179
L 2432 4179
Q 3763 4179 3763 3219
Q 3763 2771 3354 2496
Q 3136 2349 2643 2246
L 2643 2240
Q 3450 1997 3450 1280
Q 3450 653 2973 326
Q 2496 0 1690 0
L -51 0
L -51 102
Q 211 141 304 230
Q 397 320 480 614
L 1254 3405
Q 1325 3654 1325 3814
Q 1325 3955 1229 4003
Q 1133 4051 832 4077
L 832 4179
z
M 1587 2323
L 1830 2323
Q 2458 2323 2787 2572
Q 3117 2822 3117 3296
Q 3117 3654 2937 3820
Q 2758 3987 2368 3987
Q 2221 3987 2166 3977
Q 2112 3968 2067 3920
Q 2022 3872 1990 3757
L 1587 2323
z
M 1523 2118
L 1318 1357
Q 1094 506 1094 461
Q 1094 192 1523 192
Q 2086 192 2422 473
Q 2758 755 2758 1280
Q 2758 1568 2636 1773
Q 2515 1978 2330 2042
Q 2112 2118 1523 2118
z
" transform="scale(0.015625)"/>
      <path id="STIXGeneral-Italic-75" d="M 2950 762
L 3040 704
Q 2733 237 2560 89
Q 2387 -58 2157 -58
Q 1850 -58 1850 250
Q 1850 538 2138 1510
Q 1568 576 1257 253
Q 947 -70 608 -70
Q 269 -70 269 269
Q 269 384 442 1088
L 666 1978
Q 755 2349 755 2406
Q 755 2483 684 2521
Q 614 2560 365 2560
L 365 2650
Q 806 2701 1325 2822
L 1350 2803
L 781 531
Q 762 474 762 429
Q 762 269 890 269
Q 1178 269 1798 1210
Q 2010 1530 2128 1795
Q 2246 2061 2502 2765
L 2976 2765
L 2470 851
Q 2349 390 2349 352
Q 2349 243 2419 243
Q 2496 243 2605 345
Q 2714 448 2950 762
z
" transform="scale(0.015625)"/>
      <path id="STIXGeneral-Italic-51" d="M 442 -1082
L 378 -979
Q 749 -717 912 -589
Q 1075 -461 1510 -77
Q 966 32 675 425
Q 384 819 384 1440
Q 384 2035 678 2624
Q 973 3213 1491 3661
Q 2202 4262 3034 4262
Q 3680 4262 4077 3833
Q 4474 3405 4474 2746
Q 4474 1997 4019 1277
Q 3565 557 2835 173
Q 2400 -64 1786 -102
L 1440 -467
L 1600 -467
Q 1824 -467 2387 -595
Q 2938 -730 3098 -730
Q 3443 -730 3673 -624
Q 3904 -518 4173 -237
L 4275 -307
Q 4122 -525 3942 -685
Q 3411 -1165 2720 -1165
Q 2298 -1165 1773 -998
Q 1421 -883 1178 -883
Q 800 -883 442 -1082
z
M 3802 3072
Q 3802 3526 3581 3788
Q 3360 4051 2976 4051
Q 2272 4051 1734 3251
Q 1446 2822 1251 2230
Q 1056 1638 1056 1171
Q 1056 691 1273 400
Q 1491 109 1850 109
Q 2579 109 3117 902
Q 3411 1350 3606 1964
Q 3802 2579 3802 3072
z
" transform="scale(0.015625)"/>
     </defs>
     <use xlink:href="#STIXGeneral-Italic-41" transform="translate(0 0.203125)"/>
     <use xlink:href="#STIXGeneral-Italic-6b" transform="translate(61.099991 -13.025) scale(0.7)"/>
     <use xlink:href="#STIXGeneral-Regular-2c" transform="translate(96.589362 0.203125)"/>
     <use xlink:href="#STIXGeneral-Italic-42" transform="translate(136.029343 0.203125)"/>
     <use xlink:href="#STIXGeneral-Italic-6b" transform="translate(197.129333 -13.025) scale(0.7)"/>
     <use xlink:href="#STIXGeneral-Italic-75" transform="translate(232.618704 0.203125)"/>
     <use xlink:href="#STIXGeneral-Italic-6b" transform="translate(282.618689 -13.025) scale(0.7)"/>
     <use xlink:href="#STIXGeneral-Regular-2c" transform="translate(318.10806 0.203125)"/>
     <use xlink:href="#STIXGeneral-Italic-51" transform="translate(357.548041 0.203125)"/>
     <use xlink:href="#STIXGeneral-Italic-6b" transform="translate(429.748022 -13.025) scale(0.7)"/>
    </g>
   </g>
   <g id="text_6">
    <!-- $r_k, S_k, K_k$ -->
    <g transform="translate(358.4145 115.182031) scale(0.105 -0.105)">
     <defs>
      <path id="STIXGeneral-Italic-72" d="M 1126 1427
L 1229 1651
Q 1446 2131 1830 2534
Q 2106 2822 2336 2822
Q 2470 2822 2553 2732
Q 2637 2643 2637 2496
Q 2637 2349 2557 2249
Q 2477 2150 2336 2150
Q 2214 2150 2112 2317
Q 2061 2406 2010 2406
Q 1837 2406 1485 1805
Q 1267 1434 1136 1104
Q 1005 774 774 0
L 288 0
L 806 1869
Q 909 2246 909 2394
Q 909 2560 666 2560
Q 614 2560 467 2541
L 467 2650
L 1459 2822
L 1478 2810
L 1126 1427
z
" transform="scale(0.015625)"/>
      <path id="STIXGeneral-Italic-53" d="M 3251 4269
L 2995 2989
L 2880 3008
Q 2880 3539 2720 3795
Q 2560 4051 2118 4051
Q 1786 4051 1594 3881
Q 1402 3712 1402 3411
Q 1402 3168 1504 3005
Q 1606 2842 2035 2413
Q 2464 1978 2611 1715
Q 2758 1453 2758 1133
Q 2758 589 2390 237
Q 2022 -115 1466 -115
Q 1222 -115 800 32
Q 595 109 499 109
Q 288 109 224 -96
L 109 -96
L 326 1338
L 454 1325
Q 442 1267 442 1178
Q 442 710 701 409
Q 960 109 1363 109
Q 1734 109 1968 336
Q 2202 563 2202 928
Q 2202 1139 2118 1308
Q 2035 1478 1818 1715
L 1568 1984
Q 1549 2003 1459 2102
Q 1370 2202 1318 2253
Q 1030 2560 934 2755
Q 838 2950 838 3213
Q 838 3699 1168 3980
Q 1498 4262 1978 4262
Q 2310 4262 2522 4173
Q 2707 4102 2816 4102
Q 2925 4102 2982 4134
Q 3040 4166 3104 4269
L 3251 4269
z
" transform="scale(0.015625)"/>
      <path id="STIXGeneral-Italic-4b" d="M 4621 4179
L 4621 4077
Q 4442 4077 4128 3840
L 2221 2400
L 3296 525
Q 3443 269 3552 201
Q 3661 134 3962 102
L 3962 0
L 2202 0
L 2202 102
L 2387 122
Q 2682 147 2682 326
Q 2682 365 2672 409
Q 2662 454 2630 515
Q 2598 576 2579 611
Q 2560 646 2509 736
Q 2458 826 2445 851
L 1658 2227
L 1242 710
Q 1171 467 1171 384
Q 1171 237 1264 182
Q 1357 128 1626 102
L 1626 0
L 45 0
L 45 102
Q 320 134 403 211
Q 486 288 563 557
L 1357 3405
Q 1446 3725 1446 3802
Q 1446 3936 1337 4000
Q 1229 4064 941 4077
L 941 4179
L 2669 4179
L 2669 4077
Q 2400 4058 2253 3958
Q 2106 3859 2035 3603
L 1696 2362
L 2675 3059
Q 3590 3706 3590 3936
Q 3590 4032 3360 4058
L 3206 4077
L 3206 4179
L 4621 4179
z
" transform="scale(0.015625)"/>
     </defs>
     <use xlink:href="#STIXGeneral-Italic-72" transform="translate(0 0.296875)"/>
     <use xlink:href="#STIXGeneral-Italic-6b" transform="translate(38.899994 -12.93125) scale(0.7)"/>
     <use xlink:href="#STIXGeneral-Regular-2c" transform="translate(74.389365 0.296875)"/>
     <use xlink:href="#STIXGeneral-Italic-53" transform="translate(113.829346 0.296875)"/>
     <use xlink:href="#STIXGeneral-Italic-6b" transform="translate(163.82933 -12.93125) scale(0.7)"/>
     <use xlink:href="#STIXGeneral-Regular-2c" transform="translate(199.318701 0.296875)"/>
     <use xlink:href="#STIXGeneral-Italic-4b" transform="translate(238.758682 0.296875)"/>
     <use xlink:href="#STIXGeneral-Italic-6b" transform="translate(305.458679 -12.93125) scale(0.7)"/>
    </g>
   </g>
   <g id="text_7">
    <!-- next -->
    <g transform="translate(526.912495 171.061391) scale(0.105 -0.105)">
     <defs>
      <path id="SFProText-Regular-6e" d="M 506 0
L 1050 0
L 1050 1994
C 1050 2584 1391 2947 1928 2947
C 2466 2947 2716 2656 2716 2050
L 2716 0
L 3259 0
L 3259 2181
C 3259 2981 2838 3428 2081 3428
C 1584 3428 1269 3219 1100 2863
L 1050 2863
L 1050 3369
L 506 3369
L 506 0
z
" transform="scale(0.015625)"/>
      <path id="SFProText-Regular-65" d="M 1881 -59
C 2675 -59 3156 391 3272 847
L 3278 872
L 2734 872
L 2722 844
C 2631 641 2350 425 1894 425
C 1294 425 909 831 894 1528
L 3319 1528
L 3319 1741
C 3319 2747 2763 3428 1847 3428
C 931 3428 338 2716 338 1675
L 338 1672
C 338 616 919 -59 1881 -59
z
M 1844 2944
C 2341 2944 2709 2628 2766 1963
L 903 1963
C 963 2603 1344 2944 1844 2944
z
" transform="scale(0.015625)"/>
      <path id="SFProText-Regular-78" d="M 238 0
L 847 0
L 1647 1272
L 1697 1272
L 2494 0
L 3131 0
L 1972 1706
L 3116 3369
L 2506 3369
L 1716 2116
L 1666 2116
L 866 3369
L 225 3369
L 1391 1684
L 238 0
z
" transform="scale(0.015625)"/>
      <path id="SFProText-Regular-74" d="M 1703 -25
C 1809 -25 1913 -13 2019 6
L 2019 469
C 1919 459 1866 456 1769 456
C 1419 456 1281 616 1281 1013
L 1281 2919
L 2019 2919
L 2019 3369
L 1281 3369
L 1281 4241
L 719 4241
L 719 3369
L 188 3369
L 188 2919
L 719 2919
L 719 875
C 719 231 1009 -25 1703 -25
z
" transform="scale(0.015625)"/>
     </defs>
     <use xlink:href="#SFProText-Regular-6e"/>
     <use xlink:href="#SFProText-Regular-65" x="58.349609"/>
     <use xlink:href="#SFProText-Regular-78" x="115.478516"/>
     <use xlink:href="#SFProText-Regular-74" x="167.919922"/>
    </g>
    <!-- cycle -->
    <g transform="translate(524.581988 182.172031) scale(0.105 -0.105)">
     <defs>
      <path id="SFProText-Regular-63" d="M 1884 -59
C 2694 -59 3147 375 3284 984
L 3291 1019
L 2753 1016
L 2747 997
C 2622 622 2334 422 1881 422
C 1281 422 894 919 894 1694
L 894 1700
C 894 2459 1275 2947 1881 2947
C 2366 2947 2666 2678 2750 2347
L 2753 2338
L 3294 2338
L 3291 2356
C 3191 2956 2700 3428 1881 3428
C 938 3428 338 2747 338 1700
L 338 1694
C 338 625 941 -59 1884 -59
z
" transform="scale(0.015625)"/>
      <path id="SFProText-Regular-79" d="M 794 -1181
C 1391 -1181 1669 -963 1947 -206
L 3263 3369
L 2691 3369
L 1769 597
L 1719 597
L 794 3369
L 213 3369
L 1459 -3
L 1397 -203
C 1275 -591 1088 -731 778 -731
C 703 -731 619 -728 553 -716
L 553 -1163
C 628 -1175 722 -1181 794 -1181
z
" transform="scale(0.015625)"/>
      <path id="SFProText-Regular-6c" d="M 538 0
L 1081 0
L 1081 4706
L 538 4706
L 538 0
z
" transform="scale(0.015625)"/>
     </defs>
     <use xlink:href="#SFProText-Regular-63"/>
     <use xlink:href="#SFProText-Regular-79" x="55.957031"/>
     <use xlink:href="#SFProText-Regular-63" x="110.253906"/>
     <use xlink:href="#SFProText-Regular-6c" x="166.210938"/>
     <use xlink:href="#SFProText-Regular-65" x="191.503906"/>
    </g>
   </g>
   <g id="text_8">
    <!-- One Kalman Filter Cycle -->
    <g transform="translate(207.36707 16.782031) scale(0.125 -0.125)">
     <defs>
      <path id="SFProText-Semibold-4f" d="M 2500 -113
C 3816 -113 4631 803 4631 2253
L 4631 2259
C 4631 3713 3813 4622 2500 4622
C 1191 4622 366 3713 366 2259
L 366 2253
C 366 803 1178 -113 2500 -113
z
M 2500 584
C 1688 584 1188 1241 1188 2253
L 1188 2259
C 1188 3278 1700 3925 2500 3925
C 3300 3925 3809 3278 3809 2259
L 3809 2253
C 3809 1241 3303 584 2500 584
z
" transform="scale(0.015625)"/>
      <path id="SFProText-Semibold-6e" d="M 475 0
L 1253 0
L 1253 1991
C 1253 2503 1541 2828 2003 2828
C 2475 2828 2691 2559 2691 2028
L 2691 0
L 3469 0
L 3469 2209
C 3469 3022 3053 3481 2291 3481
C 1797 3481 1469 3259 1306 2894
L 1253 2894
L 1253 3416
L 475 3416
L 475 0
z
" transform="scale(0.015625)"/>
      <path id="SFProText-Semibold-65" d="M 1938 -69
C 2866 -69 3322 466 3431 906
L 3441 934
L 2700 934
L 2691 913
C 2616 756 2375 544 1953 544
C 1425 544 1094 900 1084 1513
L 3472 1513
L 3472 1769
C 3472 2800 2872 3481 1900 3481
C 928 3481 306 2778 306 1703
L 306 1700
C 306 613 922 -69 1938 -69
z
M 1909 2872
C 2344 2872 2659 2594 2713 2034
L 1091 2034
C 1150 2578 1475 2872 1909 2872
z
" transform="scale(0.015625)"/>
      <path id="SFProText-Semibold-20" transform="scale(0.015625)"/>
      <path id="SFProText-Semibold-4b" d="M 556 0
L 1363 0
L 1363 1450
L 1844 2009
L 3269 0
L 4253 0
L 2419 2544
L 4119 4509
L 3194 4509
L 1416 2425
L 1363 2425
L 1363 4509
L 556 4509
L 556 0
z
" transform="scale(0.015625)"/>
      <path id="SFProText-Semibold-61" d="M 1406 -56
C 1856 -56 2219 138 2406 469
L 2459 469
L 2459 0
L 3228 0
L 3228 2334
C 3228 3056 2734 3481 1856 3481
C 1044 3481 494 3100 419 2525
L 416 2497
L 1150 2497
L 1153 2509
C 1231 2734 1463 2863 1819 2863
C 2238 2863 2459 2675 2459 2334
L 2459 2041
L 1581 1988
C 750 1938 284 1581 284 972
L 284 966
C 284 344 756 -56 1406 -56
z
M 1053 1003
L 1053 1009
C 1053 1291 1256 1450 1691 1478
L 2459 1528
L 2459 1253
C 2459 847 2113 541 1644 541
C 1300 541 1053 713 1053 1003
z
" transform="scale(0.015625)"/>
      <path id="SFProText-Semibold-6c" d="M 506 0
L 1284 0
L 1284 4738
L 506 4738
L 506 0
z
" transform="scale(0.015625)"/>
      <path id="SFProText-Semibold-6d" d="M 475 0
L 1253 0
L 1253 2078
C 1253 2503 1534 2828 1919 2828
C 2300 2828 2534 2594 2534 2216
L 2534 0
L 3313 0
L 3313 2134
C 3313 2525 3575 2828 3981 2828
C 4397 2828 4600 2603 4600 2159
L 4600 0
L 5378 0
L 5378 2350
C 5378 3059 4966 3481 4278 3481
C 3803 3481 3409 3238 3244 2866
L 3191 2866
C 3044 3244 2706 3481 2244 3481
C 1797 3481 1453 3266 1306 2884
L 1253 2884
L 1253 3416
L 475 3416
L 475 0
z
" transform="scale(0.015625)"/>
      <path id="SFProText-Semibold-46" d="M 556 0
L 1363 0
L 1363 1841
L 3253 1841
L 3253 2497
L 1363 2497
L 1363 3831
L 3431 3831
L 3431 4509
L 556 4509
L 556 0
z
" transform="scale(0.015625)"/>
      <path id="SFProText-Semibold-69" d="M 875 3988
C 1128 3988 1338 4191 1338 4447
C 1338 4700 1128 4906 875 4906
C 619 4906 409 4700 409 4447
C 409 4191 619 3988 875 3988
z
M 484 0
L 1263 0
L 1263 3416
L 484 3416
L 484 0
z
" transform="scale(0.015625)"/>
      <path id="SFProText-Semibold-74" d="M 1819 -16
C 1969 -16 2113 -3 2225 19
L 2225 619
C 2131 609 2072 606 1963 606
C 1638 606 1503 750 1503 1091
L 1503 2813
L 2225 2813
L 2225 3416
L 1503 3416
L 1503 4253
L 713 4253
L 713 3416
L 181 3416
L 181 2813
L 713 2813
L 713 906
C 713 247 1034 -16 1819 -16
z
" transform="scale(0.015625)"/>
      <path id="SFProText-Semibold-72" d="M 475 0
L 1253 0
L 1253 1984
C 1253 2472 1594 2781 2113 2781
C 2247 2781 2375 2763 2500 2738
L 2500 3434
C 2425 3456 2303 3472 2184 3472
C 1734 3472 1422 3256 1306 2891
L 1253 2891
L 1253 3416
L 475 3416
L 475 0
z
" transform="scale(0.015625)"/>
      <path id="SFProText-Semibold-43" d="M 2438 -113
C 3478 -113 4225 491 4344 1394
L 4344 1416
L 3553 1416
L 3550 1400
C 3434 903 3009 584 2438 584
C 1669 584 1191 1225 1191 2253
L 1191 2259
C 1191 3284 1669 3925 2434 3925
C 3003 3925 3434 3572 3550 3038
L 3553 3025
L 4344 3025
L 4344 3050
C 4238 3972 3459 4622 2434 4622
C 1156 4622 366 3719 366 2256
L 366 2250
C 366 794 1159 -113 2438 -113
z
" transform="scale(0.015625)"/>
      <path id="SFProText-Semibold-79" d="M 841 -1200
C 1597 -1200 1988 -928 2281 -72
L 3506 3416
L 2688 3416
L 1894 747
L 1834 747
L 1038 3416
L 188 3416
L 1409 -3
L 1369 -159
C 1284 -469 1094 -600 775 -600
C 694 -600 606 -597 544 -591
L 544 -1188
C 638 -1197 747 -1200 841 -1200
z
" transform="scale(0.015625)"/>
      <path id="SFProText-Semibold-63" d="M 1941 -69
C 2806 -69 3309 397 3422 1097
L 3428 1122
L 2694 1119
L 2688 1106
C 2591 747 2344 563 1941 563
C 1413 563 1097 988 1097 1713
L 1097 1719
C 1097 2434 1409 2853 1941 2853
C 2366 2853 2619 2616 2691 2284
L 2694 2275
L 3428 2275
L 3428 2288
C 3341 2994 2816 3481 1938 3481
C 909 3481 306 2822 306 1719
L 306 1713
C 306 597 913 -69 1941 -69
z
" transform="scale(0.015625)"/>
     </defs>
     <use xlink:href="#SFProText-Semibold-4f"/>
     <use xlink:href="#SFProText-Semibold-6e" x="78.076172"/>
     <use xlink:href="#SFProText-Semibold-65" x="139.208984"/>
     <use xlink:href="#SFProText-Semibold-20" x="198.193359"/>
     <use xlink:href="#SFProText-Semibold-4b" x="224.804688"/>
     <use xlink:href="#SFProText-Semibold-61" x="293.896484"/>
     <use xlink:href="#SFProText-Semibold-6c" x="351.464844"/>
     <use xlink:href="#SFProText-Semibold-6d" x="379.443359"/>
     <use xlink:href="#SFProText-Semibold-61" x="470.410156"/>
     <use xlink:href="#SFProText-Semibold-6e" x="527.978516"/>
     <use xlink:href="#SFProText-Semibold-20" x="589.111328"/>
     <use xlink:href="#SFProText-Semibold-46" x="615.722656"/>
     <use xlink:href="#SFProText-Semibold-69" x="674.560547"/>
     <use xlink:href="#SFProText-Semibold-6c" x="701.806641"/>
     <use xlink:href="#SFProText-Semibold-74" x="729.785156"/>
     <use xlink:href="#SFProText-Semibold-65" x="769.238281"/>
     <use xlink:href="#SFProText-Semibold-72" x="828.222656"/>
     <use xlink:href="#SFProText-Semibold-20" x="869.775391"/>
     <use xlink:href="#SFProText-Semibold-43" x="896.386719"/>
     <use xlink:href="#SFProText-Semibold-79" x="969.580078"/>
     <use xlink:href="#SFProText-Semibold-63" x="1027.34375"/>
     <use xlink:href="#SFProText-Semibold-6c" x="1085.058594"/>
     <use xlink:href="#SFProText-Semibold-65" x="1113.037109"/>
    </g>
   </g>
  </g>
 </g>
 <defs>
  <clipPath id="p8be771db54">
   <rect x="7.2" y="22.782031" width="546.84" height="277.2"/>
  </clipPath>
 </defs>
</svg>
